<?xml version="1.0" encoding="UTF-8" standalone="no"?>
<!-- Created with Inkscape (http://www.inkscape.org/) -->

<svg
   width="210mm"
   height="297mm"
   viewBox="0 0 210 297"
   version="1.1"
   id="svg5"
   inkscape:version="1.1.1 (3bf5ae0d25, 2021-09-20)"
   sodipodi:docname="bird.svg"
   xmlns:inkscape="http://www.inkscape.org/namespaces/inkscape"
   xmlns:sodipodi="http://sodipodi.sourceforge.net/DTD/sodipodi-0.dtd"
   xmlns="http://www.w3.org/2000/svg"
   xmlns:svg="http://www.w3.org/2000/svg">
  <sodipodi:namedview
     id="namedview7"
     pagecolor="#ffffff"
     bordercolor="#666666"
     borderopacity="1.0"
     inkscape:pageshadow="2"
     inkscape:pageopacity="0.0"
     inkscape:pagecheckerboard="0"
     inkscape:document-units="mm"
     showgrid="false"
     inkscape:zoom="0.77682379"
     inkscape:cx="467.28744"
     inkscape:cy="581.21289"
     inkscape:window-width="1920"
     inkscape:window-height="1057"
     inkscape:window-x="-8"
     inkscape:window-y="-8"
     inkscape:window-maximized="1"
     inkscape:current-layer="layer1" />
  <defs
     id="defs2" />
  <g
     inkscape:label="Layer 1"
     inkscape:groupmode="layer"
     id="layer1">
    <path
       style="fill:#000000;stroke-width:0.193213"
       d="m 92.164704,192.49313 v -4.73371 H 82.69728 73.229855 v -4.73372 -4.73371 H 68.496142 63.76243 v -4.73371 -4.73371 H 54.295005 44.82758 v -4.73371 -4.73372 h -4.733712 -4.733712 v -4.73371 -4.73371 h -4.733713 -4.733712 v -14.29774 -14.29775 h 4.733712 4.733713 v -4.73371 -4.73371 h 9.467424 9.467425 v -4.73371 -4.73371 h 4.733713 4.733712 v -4.733724 -4.73371 h 9.467425 9.467425 v -4.73371 -4.73371 h 28.49888 28.49888 v 4.73371 4.73371 h 4.73371 4.73371 v 4.73371 4.733724 h 4.73372 4.73371 v 4.73371 4.73371 h 4.73371 4.73371 v 14.29774 14.29775 h 4.73372 4.73371 v 4.73371 4.73371 h 4.73371 4.73371 v 4.73371 4.73371 h -4.73371 -4.73371 v 14.20114 14.20114 h -23.66856 -23.66857 v 4.73371 4.73371 H 111.19616 92.164704 Z M 130.0344,183.0257 v -4.73371 h -4.73371 -4.73371 v -4.73371 -4.73371 h -4.73709 -4.73709 l 0.0517,-4.78202 0.0517,-4.78201 4.68198,-0.0517 4.68198,-0.0517 0.0517,-4.68199 0.0517,-4.68198 4.68541,-0.0517 4.68541,-0.0517 v -4.63024 -4.63023 l -4.68541,-0.0517 -4.68541,-0.0517 -0.0517,-4.68198 -0.0517,-4.68198 -4.68198,-0.0517 -4.68198,-0.0517 -0.0495,-14.24943 -0.0495,-14.24944 h 4.73496 4.73496 v -4.733724 -4.73371 H 101.72873 82.890492 v 4.73371 4.733724 h -9.467425 -9.467424 v 4.73027 4.73028 l 4.685409,0.0517 4.685409,0.0517 0.05174,4.68541 0.05174,4.6854 h 4.730277 4.730277 v 4.73372 4.73371 h 4.733713 4.733712 v 9.56403 9.56403 h -4.733712 -4.733713 v 4.73371 4.73371 H 78.156783 73.42307 v 9.46743 9.46742 h 9.467425 9.467425 v 4.73371 4.73372 h 18.83824 18.83824 z m 37.8697,-9.56403 v -4.6371 h -18.83824 -18.83825 v 4.6371 4.63711 h 18.83825 18.83824 z m -37.8697,-9.46742 v -4.63711 h -4.6371 -4.63711 v 4.63711 4.6371 h 4.63711 4.6371 z m -56.759677,-9.51573 0.05174,-4.68541 4.685409,-0.0517 4.68541,-0.0517 v -9.46399 -9.46399 h -4.733713 -4.733712 v -4.73371 -4.73372 H 54.295005 35.360156 v 14.20114 14.20114 h 4.733712 4.733712 v 4.73371 4.73371 h 14.197702 14.197702 z m 104.290017,0.0483 v -4.63711 h -23.66856 -23.66857 v 4.63711 4.6371 h 23.66857 23.66856 z m -18.98191,-28.45058 0.0496,-14.24944 h -4.73496 -4.73496 v -4.73371 -4.73371 h -4.73371 -4.73371 v -4.733724 -4.73371 h -4.73371 -4.73372 v 4.73371 4.733724 h -4.73371 -4.73371 v 14.1977 14.1977 l 4.68541,0.0517 4.68541,0.0517 0.0517,4.78327 0.0517,4.78327 14.14946,-0.0495 14.14945,-0.0496 z m -18.88779,-4.78202 v -9.46742 h 4.73371 4.73371 v 9.46742 9.46743 h -4.73371 -4.73371 z"
       id="path823" />
    <path
       style="fill:#ff5722;fill-opacity:1;stroke-width:0.340595"
       d="m 130.2781,154.63073 v -4.42775 h 23.50114 23.50115 v 4.42775 4.42775 H 153.77924 130.2781 Z"
       id="path4039" />
    <path
       style="fill:#ff5722;fill-opacity:1;stroke-width:0.340595"
       d="m 130.2781,173.36353 v -4.42775 h 18.73279 18.7328 v 4.42775 4.42775 h -18.7328 -18.73279 z"
       id="path4078" />
    <path
       style="fill:#ffc106;fill-opacity:1;stroke-width:0.340595"
       d="m 121.08199,163.99713 v -4.59805 h 4.42776 4.42775 v 4.59805 4.59805 h -4.42775 -4.42776 z"
       id="path4117" />
    <path
       style="fill:#ffc106;fill-opacity:1;stroke-width:0.340595"
       d="m 92.471903,182.90022 v -4.76834 h -9.366398 -9.366401 v -9.3664 -9.3664 h 4.598051 4.598051 v -4.59805 -4.59805 h 4.768347 4.76835 v -9.8773 -9.87729 h -4.76835 -4.768347 v -4.59805 -4.59805 h -4.550609 -4.550608 l -0.214781,-1.78813 c -0.118129,-0.98347 -0.216112,-3.12923 -0.217739,-4.76835 l -0.003,-2.98022 h -4.598051 -4.598051 v -4.59805 -4.59805 h 9.366401 9.366398 V 97.751145 92.982797 H 101.668 120.4008 v 4.598049 4.598054 h -4.77205 -4.77204 l 0.0888,14.39019 0.0888,14.3902 4.6832,0.0948 4.6832,0.0948 v 4.54871 c 0,5.38582 -0.47797,4.95712 5.53469,4.96411 l 4.002,0.005 v 4.42775 4.42775 h -4.76834 -4.76835 v 4.76835 4.76835 h -4.76835 -4.76835 v 4.93865 4.93864 h 4.76835 4.76835 v 4.76835 4.76835 h 4.76835 4.76834 v 4.59805 4.59805 H 111.2047 92.4719 Z"
       id="path6182" />
    <rect
       style="fill:#ffc106;fill-opacity:1;stroke-width:0.264583"
       id="rect6282"
       width="28.395403"
       height="9.467432"
       x="44.827579"
       y="149.69656" />
    <rect
       style="fill:#ffc106;fill-opacity:1;stroke-width:0.264583"
       id="rect6284"
       width="9.4134617"
       height="10.17981"
       x="35.414116"
       y="139.51675" />
    <rect
       style="fill:#ffc106;fill-opacity:1;stroke-width:0.261207"
       id="rect6286"
       width="9.3180265"
       height="9.3180265"
       x="73.326462"
       y="140.47507"
       rx="0.02972066"
       ry="0.02972066" />
    <path
       style="fill:#ffffff;stroke:none;stroke-width:1.28729"
       d="m 169.92271,545.81233 v -19.3094 H 151.9006 133.8785 V 493.0333 459.56368 h 71.44477 71.44477 v 17.37846 17.37846 h 17.37846 17.37846 v 18.0221 18.02211 H 294.1465 276.76804 v 17.37846 17.37845 h -53.42267 -53.42266 z"
       id="path10126"
       transform="scale(0.26458333)" />
    <path
       style="fill:#ffffff;stroke:none;stroke-width:1.28729"
       d="m 169.92271,545.81233 v -19.3094 H 151.9006 133.8785 V 493.0333 459.56368 h 71.44477 71.44477 v 17.37846 17.37846 h 17.37846 17.37846 v 18.0221 18.02211 H 294.1465 276.76804 v 17.37846 17.37845 h -53.42267 -53.42266 z"
       id="path10202"
       transform="scale(0.26458333)" />
    <path
       style="fill:#ffffff;stroke:none;stroke-width:1.28729"
       d="m 493.0333,512.3427 v -18.0221 h -12.04961 c -6.62729,0 -14.73724,-0.36839 -18.02211,-0.81862 l -5.97249,-0.81863 v -52.60404 -52.60405 h 18.02211 18.0221 v -18.02211 -18.0221 h 17.37846 17.37846 v 18.0221 18.02211 h 17.37846 17.37846 v 17.37846 17.37846 h -17.37846 -17.37846 v 36.04421 36.04421 h 18.02211 18.0221 v -35.40057 -35.40056 h 17.37846 17.37846 v 53.42267 53.42267 H 545.81233 493.0333 Z"
       id="path10278"
       transform="scale(0.26458333)" />
  </g>
</svg>
